<?xml version="1.0" encoding="UTF-8"?>
<!DOCTYPE svg PUBLIC "-//W3C//DTD SVG 1.1//EN" "http://www.w3.org/Graphics/SVG/1.1/DTD/svg11.dtd">
<!-- Creator: CorelDRAW 2021.5 (Evaluation Version) -->
<svg xmlns="http://www.w3.org/2000/svg" xml:space="preserve" width="210mm" height="297mm" version="1.1" style="shape-rendering:geometricPrecision; text-rendering:geometricPrecision; image-rendering:optimizeQuality; fill-rule:evenodd; clip-rule:evenodd"
viewBox="0 0 21000 29700"
 xmlns:xlink="http://www.w3.org/1999/xlink"
 xmlns:xodm="http://www.corel.com/coreldraw/odm/2003">
 <defs>
  <style type="text/css">
   <![CDATA[
    .str0 {stroke:#373435;stroke-width:20;stroke-miterlimit:22.9256}
    .fil0 {fill:#343E64}
   ]]>
  </style>
 </defs>
 <g id="Layer_x0020_1">
  <metadata id="CorelCorpID_0Corel-Layer"/>
  <path class="fil0 str0" d="M8939.35 14754.84l-302.09 2463.63 -1487.42 -10.86 271.43 48.86 184.57 27.14 287.71 54.29 282.28 81.43 200.86 48.85 233.43 76 179.14 86.86 292.28 95.26 151.06 94.41 169.93 99.13 217.15 89.69 99.13 66.09 146.33 99.13 122.74 108.57 193.54 99.13 288.74 235.83 116.06 62.08 129.55 89.06 137.65 99.87 137.65 97.16 164.64 70.18 272.6 110.66c0,0 143.05,37.78 164.64,45.88 21.59,8.1 194.33,43.18 194.33,43.18l180.83 35.09c0,0 151.15,8.11 175.44,16.2 24.29,8.09 232.11,16.19 232.11,16.19l194.33 -10.8 240.22 -32.38 224.01 -48.59 210.53 -94.46 178.13 -70.18 110.66 -86.37 170.04 -105.26 137.65 -105.26 137.65 -129.55 118.76 -172.74 75.57 -97.16 59.38 -94.47 10.79 -35.09 -102.56 64.78 -99.86 62.08 -99.87 75.57 -129.55 70.17 -215.92 110.66 -107.96 67.48 -194.33 80.97 -159.24 64.78 -180.84 35.08 -310.38 24.3 -178.14 8.09 -172.74 -16.19 -107.96 -16.2 -129.55 -32.38 -153.84 -64.78 -596.49 -5047.16 -1048.93 491.26 155.17 3692.65 -108.57 -70.58 -190.01 -97.72 -119.43 -103.14 -206.3 -103.15 -152 -54.29 -130.29 -59.71 -1.48 -3043.71 -562.96 394.46z"/>
  <path class="fil0 str0" d="M7057.28 17899.96l506.91 64.25 364.11 78.54c0,0 349.83,124.94 381.96,139.22 32.13,14.28 560.45,239.17 560.45,239.17l531.89 235.6 246.31 174.92 417.66 267.73 467.64 292.72 260.59 224.9 356.98 189.19 214.18 42.84c0,0 282.01,82.1 310.57,92.81 28.56,10.71 481.91,35.7 481.91,35.7l317.71 3.57 403.38 -57.12 178.49 -71.39 321.27 -157.07 292.72 -217.75 174.92 -178.49 160.64 -189.2 110.66 -207.04 -149.93 85.67 -239.17 142.79 -221.32 139.22 -353.41 189.2 -328.42 114.23 -499.76 74.96 -439.08 -46.4 -371.25 -146.36 -299.86 -167.78 -267.73 -146.36 -303.43 -189.2 -239.17 -167.77 -271.3 -149.93 -410.52 -253.46 -392.67 -192.76 -442.65 -157.07 -556.88 -114.23 -414.09 -21.42 -410.52 -17.85 -449.79 21.42z"/>
 </g>
</svg>
